<svg width="23" height="17" viewBox="0 0 23 17" fill="none" xmlns="http://www.w3.org/2000/svg">
<path d="M14 0L11 3H3C2.20435 3 1.44129 3.31607 0.87868 3.87868C0.31607 4.44129 0 5.20435 0 6L0 9C0 9.79565 0.31607 10.5587 0.87868 11.1213C1.44129 11.6839 2.20435 12 3 12V15C3 15.5304 3.21071 16.0391 3.58579 16.4142C3.96086 16.7893 4.46957 17 5 17H6C6.53043 17 7.03914 16.7893 7.41421 16.4142C7.78929 16.0391 8 15.5304 8 15V12H11L14 15H16V0H14ZM14.414 1H15V14H14.414L11.414 11H3C2.46957 11 1.96086 10.7893 1.58579 10.4142C1.21071 10.0391 1 9.53043 1 9V6C1 5.46957 1.21071 4.96086 1.58579 4.58579C1.96086 4.21071 2.46957 4 3 4H11.414L14.414 1ZM18 3V4.008C18.8331 4.1284 19.5949 4.54494 20.1459 5.1813C20.6969 5.81766 21.0002 6.63124 21.0002 7.473C21.0002 8.31476 20.6969 9.12834 20.1459 9.7647C19.5949 10.4011 18.8331 10.8176 18 10.938V11.945C19.1007 11.8228 20.1177 11.2989 20.8563 10.4737C21.5949 9.64854 22.0033 8.57996 22.0033 7.4725C22.0033 6.36504 21.5949 5.29646 20.8563 4.47128C20.1177 3.64609 19.1007 3.12225 18 3ZM18 6.059V8.887C18.2923 8.78351 18.5454 8.59198 18.7243 8.33876C18.9033 8.08554 18.9994 7.78308 18.9994 7.473C18.9994 7.16292 18.9033 6.86046 18.7243 6.60724C18.5454 6.35402 18.2923 6.16249 18 6.059ZM4 12H7V15C7 15.2652 6.89464 15.5196 6.70711 15.7071C6.51957 15.8946 6.26522 16 6 16H5C4.73478 16 4.48043 15.8946 4.29289 15.7071C4.10536 15.5196 4 15.2652 4 15V12Z" fill="white"/>
</svg>
