<svg width="19" height="19" viewBox="0 0 19 19" fill="none" xmlns="http://www.w3.org/2000/svg">
<path d="M10 0H11C13.1217 0 15.1566 0.842855 16.6569 2.34315C18.1572 3.84344 19 5.87827 19 8V9H10V0ZM11 8H18C18 6.14348 17.2625 4.36301 15.9498 3.05025C14.637 1.7375 12.8565 1 11 1V8ZM8 11H16C16 12.5823 15.5308 14.129 14.6518 15.4446C13.7727 16.7602 12.5233 17.7855 11.0615 18.391C9.59966 18.9965 7.99113 19.155 6.43928 18.8463C4.88743 18.5376 3.46197 17.7757 2.34315 16.6569C1.22433 15.538 0.462403 14.1126 0.153721 12.5607C-0.15496 11.0089 0.00346625 9.40034 0.608967 7.93853C1.21447 6.47672 2.23985 5.22729 3.55544 4.34824C4.87103 3.46919 6.41775 3 8 3V11ZM7 12V4.07C5.25105 4.32628 3.66373 5.23456 2.55663 6.61256C1.44954 7.99055 0.904589 9.73628 1.03116 11.4994C1.15773 13.2625 1.94645 14.9125 3.23902 16.1182C4.5316 17.3239 6.23237 17.9962 8 18C9.68351 18.0002 11.3107 17.3938 12.5835 16.2918C13.8562 15.1899 14.6893 13.6662 14.93 12H7Z" fill="white"/>
</svg>
