<svg width="295" height="270" viewBox="0 0 295 270" fill="none" xmlns="http://www.w3.org/2000/svg">
<g opacity="0.8" clip-path="url(#clip0_205_14)">
<path d="M1092.97 236.204L1086.1 233.447L1079.22 267.09L1072.34 270.537L1065.47 234.76L1058.59 229.64L1051.71 244.41L1044.83 237.616L1037.96 209.782L1031.08 283.042L1024.2 269.06L1017.33 228.458L1010.45 241.751L1003.57 290.756L996.695 229.738L989.818 219.662L982.941 296.762L976.064 288.294L969.187 275.592L962.31 270.143L955.433 220.252L948.555 252.845L941.678 271.062L934.801 188.644L927.924 215.526L921.047 238.994L914.17 214.968L907.293 295.942L900.416 236.303L893.539 182.703L886.662 194.224L879.785 244.082L872.907 227.408L866.03 250.449L859.153 238.239L852.276 247.397L845.399 214.869L838.522 249.53L831.645 277.725L824.768 305.592L817.891 296.762L811.014 266.959L804.137 169.673L797.259 191.04L790.382 223.206L783.505 182.408L776.628 229.902L769.751 194.519L762.874 215.427L755.997 216.872L749.12 217.791L742.243 206.5L735.366 169.902L728.488 152.933L721.611 179.388L714.734 155.395L707.857 194.913L700.98 141.248L694.103 256.423L687.226 273.228L680.349 201.872L673.472 169.738L666.595 163.239L659.717 162.353L652.84 147.255L645.963 158.874L639.086 200.263L632.209 150.931L625.332 184.574L618.455 139.279L611.578 142.725L604.701 194.815L597.824 189.76L590.947 195.11L584.069 170.099L577.192 172.856L570.315 148.436L563.438 161.139L556.561 144.202L549.684 167.112L542.807 164.388L535.93 169.082L529.053 119.651L522.176 128.152L515.298 154.607L508.421 146.303L501.544 160.482L494.667 132.747L487.79 157.266L480.913 136.587L474.036 135.668L467.159 144.53L460.568 150.767L453.691 134.027L446.814 141.543L439.937 134.093L433.06 122.539L426.183 155.788L419.306 142.167L412.429 145.187L405.551 153.327L398.674 129.136L391.797 198.95L384.92 203.414L378.043 188.939L371.166 174.301L364.289 146.106L357.412 179.158L350.535 133.206L343.658 153.885L336.78 261.478L329.903 224.355L323.026 159.957L316.149 150.438L309.272 130.121L302.395 194.158L295.518 195.602L288.641 174.793L281.764 125.099L274.887 149.487L268.01 176.007L261.132 155.23L254.255 117.025L247.378 109.246L240.501 138.753L233.624 124.837L226.747 125.263L219.87 135.996L212.993 105.373L206.116 101.434L199.239 147.911L192.361 110.624L185.484 121.948L178.607 147.517L171.73 167.08L164.853 180.602L157.976 130.252L151.099 117.878L144.222 141.74L137.345 196.653L130.468 163.075L123.59 169.968L116.713 172.627L109.836 128.611L102.959 110.099L96.0821 117.452L89.205 121.325L82.3279 102.616L75.4508 86.6966L68.5737 143.25L61.6966 204.005L54.8195 168.786L47.9424 135.012L41.0653 146.959L34.1882 103.272L27.3111 65.4603L20.434 48.3268L13.5569 56.0073L6.67984 84.6616L-0.197255 98.5456L-7.07435 90.2414L-13.9146 65.9526V305.592H-7.07435H-0.197255H6.67984H13.5569H20.434H27.3111H34.1882H41.0653H47.9424H54.8195H61.6966H68.5737H75.4508H82.3279H89.205H96.0821H102.959H109.836H116.713H123.59H130.468H137.345H144.222H151.099H157.976H164.853H171.73H178.607H185.484H192.361H199.239H206.116H212.993H219.87H226.747H233.624H240.501H247.378H254.255H261.132H268.01H274.887H281.764H288.641H295.518H302.395H309.272H316.149H323.026H329.903H336.78H343.658H350.535H357.412H364.289H371.166H378.043H384.92H391.797H398.674H405.551H412.429H419.306H426.183H433.06H439.937H446.814H453.691H460.568H467.159H474.036H480.913H487.79H494.667H501.544H508.421H515.298H522.176H529.053H535.93H542.807H549.684H556.561H563.438H570.315H577.192H584.069H590.947H597.824H604.701H611.578H618.455H625.332H632.209H639.086H645.963H652.84H659.717H666.595H673.472H680.349H687.226H694.103H700.98H707.857H714.734H721.611H728.488H735.366H742.243H749.12H755.997H762.874H769.751H776.628H783.505H790.382H797.259H804.137H811.014H817.891H824.768H831.645H838.522H845.399H852.276H859.153H866.03H872.907H879.785H886.662H893.539H900.416H907.293H914.17H921.047H927.924H934.801H941.678H948.555H955.433H962.31H969.187H976.064H982.941H989.818H996.695H1003.57H1010.45H1017.33H1024.2H1031.08H1037.96H1044.83H1051.71H1058.59H1065.47H1072.34H1079.22H1086.1H1092.97V236.204Z" fill="url(#paint0_linear_205_14)"/>
<path d="M824.768 305.592L831.645 277.725L838.522 249.53L845.399 214.869L852.276 247.397L859.153 238.239L866.03 250.449L872.907 227.408L879.785 244.082L886.662 194.224L893.539 182.703L900.416 236.303L907.293 295.942L914.17 214.968L921.047 238.994L927.924 215.526L934.801 188.644L941.678 271.062L948.555 252.845L955.433 220.252L962.31 270.143L969.187 275.592L976.064 288.294L982.941 296.762L989.818 219.662L996.695 229.738L1003.57 290.756L1010.45 241.751L1017.33 228.458L1024.2 269.06L1031.08 283.042L1037.96 209.782L1044.83 237.616L1051.71 244.41L1058.59 229.64L1065.47 234.76L1072.34 270.537L1079.22 267.09L1086.1 233.447L1092.97 236.204V305.592H1086.1H1079.22H1072.34H1065.47H1058.59H1051.71H1044.83H1037.96H1031.08H1024.2H1017.33H1010.45H1003.57H996.695H989.818H982.941H976.064H969.187H962.31H955.433H948.555H941.678H934.801H927.924H921.047H914.17H907.293H900.416H893.539H886.662H879.785H872.907H866.03H859.153H852.276H845.399H838.522H831.645H824.768ZM824.768 305.592L817.891 296.762L811.014 266.959L804.137 169.673L797.259 191.04L790.382 223.206L783.505 182.408L776.628 229.902L769.751 194.519L762.874 215.427L755.997 216.872L749.12 217.791L742.243 206.5L735.366 169.902L728.488 152.933L721.611 179.388L714.734 155.395L707.857 194.913L700.98 141.248L694.103 256.423L687.226 273.228L680.349 201.872L673.472 169.738L666.595 163.239L659.717 162.353L652.84 147.255L645.963 158.874L639.086 200.263L632.209 150.931L625.332 184.574L618.455 139.279L611.578 142.725L604.701 194.815L597.824 189.76L590.947 195.11L584.069 170.099L577.192 172.856L570.315 148.436L563.438 161.139L556.561 144.202L549.684 167.112L542.807 164.388L535.93 169.082L529.053 119.651L522.176 128.152L515.298 154.607L508.421 146.303L501.544 160.482L494.667 132.747L487.79 157.266L480.913 136.587L474.036 135.668L467.159 144.53L460.568 150.767L453.691 134.027L446.814 141.543L439.937 134.093L433.06 122.539L426.183 155.788L419.306 142.167L412.429 145.187L405.551 153.327L398.674 129.136L391.797 198.95L384.92 203.414L378.043 188.939L371.166 174.301L364.289 146.106L357.412 179.158L350.535 133.206L343.658 153.885L336.78 261.478L329.903 224.355L323.026 159.957L316.149 150.438L309.272 130.121L302.395 194.158L295.518 195.602L288.641 174.793L281.764 125.099L274.887 149.487L268.01 176.007L261.132 155.23L254.255 117.025L247.378 109.246L240.501 138.753L233.624 124.837L226.747 125.263L219.87 135.996L212.993 105.373L206.116 101.434L199.239 147.911L192.361 110.624L185.484 121.948L178.607 147.517L171.73 167.08L164.853 180.602L157.976 130.252L151.099 117.878L144.222 141.74L137.345 196.653L130.468 163.075L123.59 169.968L116.713 172.627L109.836 128.611L102.959 110.099L96.0821 117.452L89.205 121.325L82.3279 102.616L75.4508 86.6966L68.5737 143.25L61.6966 204.005L54.8195 168.786L47.9424 135.012L41.0653 146.959L34.1882 103.272L27.3111 65.4603L20.434 48.3268L13.5569 56.0073L6.67984 84.6616L-0.197255 98.5456L-7.07435 90.2414L-13.9146 65.9526V305.592H-7.07435H-0.197255H6.67984H13.5569H20.434H27.3111H34.1882H41.0653H47.9424H54.8195H61.6966H68.5737H75.4508H82.3279H89.205H96.0821H102.959H109.836H116.713H123.59H130.468H137.345H144.222H151.099H157.976H164.853H171.73H178.607H185.484H192.361H199.239H206.116H212.993H219.87H226.747H233.624H240.501H247.378H254.255H261.132H268.01H274.887H281.764H288.641H295.518H302.395H309.272H316.149H323.026H329.903H336.78H343.658H350.535H357.412H364.289H371.166H378.043H384.92H391.797H398.674H405.551H412.429H419.306H426.183H433.06H439.937H446.814H453.691H460.568H467.159H474.036H480.913H487.79H494.667H501.544H508.421H515.298H522.176H529.053H535.93H542.807H549.684H556.561H563.438H570.315H577.192H584.069H590.947H597.824H604.701H611.578H618.455H625.332H632.209H639.086H645.963H652.84H659.717H666.595H673.472H680.349H687.226H694.103H700.98H707.857H714.734H721.611H728.488H735.366H742.243H749.12H755.997H762.874H769.751H776.628H783.505H790.382H797.259H804.137H811.014H817.891H824.768Z" stroke="#646981" stroke-linejoin="round"/>
<path d="M824.768 305.592L831.645 277.725L838.522 249.53L845.399 214.869L852.276 247.397L859.153 238.239L866.03 250.449L872.907 227.408L879.785 244.082L886.662 194.224L893.539 182.703L900.416 236.303L907.293 295.942L914.17 214.968L921.047 238.994L927.924 215.526L934.801 188.644L941.678 271.062L948.555 252.845L955.433 220.252L962.31 270.143L969.187 275.592L976.064 288.294L982.941 296.762L989.818 219.662L996.695 229.738L1003.57 290.756L1010.45 241.751L1017.33 228.458L1024.2 269.06L1031.08 283.042L1037.96 209.782L1044.83 237.616L1051.71 244.41L1058.59 229.64L1065.47 234.76L1072.34 270.537L1079.22 267.09L1086.1 233.447L1092.97 236.204V305.592H1086.1H1079.22H1072.34H1065.47H1058.59H1051.71H1044.83H1037.96H1031.08H1024.2H1017.33H1010.45H1003.57H996.695H989.818H982.941H976.064H969.187H962.31H955.433H948.555H941.678H934.801H927.924H921.047H914.17H907.293H900.416H893.539H886.662H879.785H872.907H866.03H859.153H852.276H845.399H838.522H831.645H824.768ZM824.768 305.592L817.891 296.762L811.014 266.959L804.137 169.673L797.259 191.04L790.382 223.206L783.505 182.408L776.628 229.902L769.751 194.519L762.874 215.427L755.997 216.872L749.12 217.791L742.243 206.5L735.366 169.902L728.488 152.933L721.611 179.388L714.734 155.395L707.857 194.913L700.98 141.248L694.103 256.423L687.226 273.228L680.349 201.872L673.472 169.738L666.595 163.239L659.717 162.353L652.84 147.255L645.963 158.874L639.086 200.263L632.209 150.931L625.332 184.574L618.455 139.279L611.578 142.725L604.701 194.815L597.824 189.76L590.947 195.11L584.069 170.099L577.192 172.856L570.315 148.436L563.438 161.139L556.561 144.202L549.684 167.112L542.807 164.388L535.93 169.082L529.053 119.651L522.176 128.152L515.298 154.607L508.421 146.303L501.544 160.482L494.667 132.747L487.79 157.266L480.913 136.587L474.036 135.668L467.159 144.53L460.568 150.767L453.691 134.027L446.814 141.543L439.937 134.093L433.06 122.539L426.183 155.788L419.306 142.167L412.429 145.187L405.551 153.327L398.674 129.136L391.797 198.95L384.92 203.414L378.043 188.939L371.166 174.301L364.289 146.106L357.412 179.158L350.535 133.206L343.658 153.885L336.78 261.478L329.903 224.355L323.026 159.957L316.149 150.438L309.272 130.121L302.395 194.158L295.518 195.602L288.641 174.793L281.764 125.099L274.887 149.487L268.01 176.007L261.132 155.23L254.255 117.025L247.378 109.246L240.501 138.753L233.624 124.837L226.747 125.263L219.87 135.996L212.993 105.373L206.116 101.434L199.239 147.911L192.361 110.624L185.484 121.948L178.607 147.517L171.73 167.08L164.853 180.602L157.976 130.252L151.099 117.878L144.222 141.74L137.345 196.653L130.468 163.075L123.59 169.968L116.713 172.627L109.836 128.611L102.959 110.099L96.0821 117.452L89.205 121.325L82.3279 102.616L75.4508 86.6966L68.5737 143.25L61.6966 204.005L54.8195 168.786L47.9424 135.012L41.0653 146.959L34.1882 103.272L27.3111 65.4603L20.434 48.3268L13.5569 56.0073L6.67984 84.6616L-0.197255 98.5456L-7.07435 90.2414L-13.9146 65.9526V305.592H-7.07435H-0.197255H6.67984H13.5569H20.434H27.3111H34.1882H41.0653H47.9424H54.8195H61.6966H68.5737H75.4508H82.3279H89.205H96.0821H102.959H109.836H116.713H123.59H130.468H137.345H144.222H151.099H157.976H164.853H171.73H178.607H185.484H192.361H199.239H206.116H212.993H219.87H226.747H233.624H240.501H247.378H254.255H261.132H268.01H274.887H281.764H288.641H295.518H302.395H309.272H316.149H323.026H329.903H336.78H343.658H350.535H357.412H364.289H371.166H378.043H384.92H391.797H398.674H405.551H412.429H419.306H426.183H433.06H439.937H446.814H453.691H460.568H467.159H474.036H480.913H487.79H494.667H501.544H508.421H515.298H522.176H529.053H535.93H542.807H549.684H556.561H563.438H570.315H577.192H584.069H590.947H597.824H604.701H611.578H618.455H625.332H632.209H639.086H645.963H652.84H659.717H666.595H673.472H680.349H687.226H694.103H700.98H707.857H714.734H721.611H728.488H735.366H742.243H749.12H755.997H762.874H769.751H776.628H783.505H790.382H797.259H804.137H811.014H817.891H824.768Z" stroke="url(#paint1_linear_205_14)" stroke-linejoin="round"/>
<path d="M1092.97 236.204L1086.1 233.447L1079.22 267.09L1072.34 270.537L1065.47 234.76L1058.59 229.64L1051.71 244.41L1044.83 237.616L1037.96 209.782L1031.08 283.042L1024.2 269.06L1017.33 228.458L1010.45 241.751L1003.57 290.756L996.695 229.738L989.818 219.662L982.941 296.762L976.064 288.294L969.187 275.592L962.31 270.143L955.433 220.252L948.555 252.845L941.678 271.062L934.801 188.644L927.924 215.526L921.047 238.994L914.17 214.968L907.293 295.942L900.416 236.303L893.539 182.703L886.662 194.224L879.785 244.082L872.907 227.408L866.03 250.449L859.153 238.239L852.276 247.397L845.399 214.869L838.522 249.53L831.645 277.725L824.768 305.592L817.891 296.762L811.014 266.959L804.137 169.673L797.259 191.04L790.382 223.206L783.505 182.408L776.628 229.902L769.751 194.519L762.874 215.427L755.997 216.872L749.12 217.791L742.243 206.5L735.366 169.902L728.488 152.933L721.611 179.388L714.734 155.395L707.857 194.913L700.98 141.248L694.103 256.423L687.226 273.228L680.349 201.872L673.472 169.738L666.595 163.239L659.717 162.353L652.84 147.255L645.963 158.874L639.086 200.263L632.209 150.931L625.332 184.574L618.455 139.279L611.578 142.725L604.701 194.815L597.824 189.76L590.947 195.11L584.069 170.099L577.192 172.856L570.315 148.436L563.438 161.139L556.561 144.202L549.684 167.112L542.807 164.388L535.93 169.082L529.053 119.651L522.176 128.152L515.298 154.607L508.421 146.303L501.544 160.482L494.667 132.747L487.79 157.266L480.913 136.587L474.036 135.668L467.159 144.53L460.568 150.767L453.691 134.027L446.814 141.543L439.937 134.093L433.06 122.539L426.183 155.788L419.306 142.167L412.429 145.187L405.551 153.327L398.674 129.136L391.797 198.95L384.92 203.414L378.043 188.939L371.166 174.301L364.289 146.106L357.412 179.158L350.535 133.206L343.658 153.885L336.78 261.478L329.903 224.355L323.026 159.957L316.149 150.438L309.272 130.121L302.395 194.158L295.518 195.602L288.641 174.793L281.764 125.099L274.887 149.487L268.01 176.007L261.132 155.23L254.255 117.025L247.378 109.246L240.501 138.753L233.624 124.837L226.747 125.263L219.87 135.996L212.993 105.373L206.116 101.434L199.239 147.911L192.361 110.624L185.484 121.948L178.607 147.517L171.73 167.08L164.853 180.602L157.976 130.252L151.099 117.878L144.222 141.74L137.345 196.653L130.468 163.075L123.59 169.968L116.713 172.627L109.836 128.611L102.959 110.099L96.0821 117.452L89.205 121.325L82.3279 102.616L75.4508 86.6966L68.5737 143.25L61.6966 204.005L54.8195 168.786L47.9424 135.012L41.0653 146.959L34.1882 103.272L27.3111 65.4603L20.434 48.3268L13.5569 56.0073L6.67984 84.6616L-0.197255 98.5456L-7.07435 90.2414L-13.9146 65.9526" stroke="#646981" stroke-linecap="round" stroke-linejoin="round"/>
<path d="M1092.97 236.204L1086.1 233.447L1079.22 267.09L1072.34 270.537L1065.47 234.76L1058.59 229.64L1051.71 244.41L1044.83 237.616L1037.96 209.782L1031.08 283.042L1024.2 269.06L1017.33 228.458L1010.45 241.751L1003.57 290.756L996.695 229.738L989.818 219.662L982.941 296.762L976.064 288.294L969.187 275.592L962.31 270.143L955.433 220.252L948.555 252.845L941.678 271.062L934.801 188.644L927.924 215.526L921.047 238.994L914.17 214.968L907.293 295.942L900.416 236.303L893.539 182.703L886.662 194.224L879.785 244.082L872.907 227.408L866.03 250.449L859.153 238.239L852.276 247.397L845.399 214.869L838.522 249.53L831.645 277.725L824.768 305.592L817.891 296.762L811.014 266.959L804.137 169.673L797.259 191.04L790.382 223.206L783.505 182.408L776.628 229.902L769.751 194.519L762.874 215.427L755.997 216.872L749.12 217.791L742.243 206.5L735.366 169.902L728.488 152.933L721.611 179.388L714.734 155.395L707.857 194.913L700.98 141.248L694.103 256.423L687.226 273.228L680.349 201.872L673.472 169.738L666.595 163.239L659.717 162.353L652.84 147.255L645.963 158.874L639.086 200.263L632.209 150.931L625.332 184.574L618.455 139.279L611.578 142.725L604.701 194.815L597.824 189.76L590.947 195.11L584.069 170.099L577.192 172.856L570.315 148.436L563.438 161.139L556.561 144.202L549.684 167.112L542.807 164.388L535.93 169.082L529.053 119.651L522.176 128.152L515.298 154.607L508.421 146.303L501.544 160.482L494.667 132.747L487.79 157.266L480.913 136.587L474.036 135.668L467.159 144.53L460.568 150.767L453.691 134.027L446.814 141.543L439.937 134.093L433.06 122.539L426.183 155.788L419.306 142.167L412.429 145.187L405.551 153.327L398.674 129.136L391.797 198.95L384.92 203.414L378.043 188.939L371.166 174.301L364.289 146.106L357.412 179.158L350.535 133.206L343.658 153.885L336.78 261.478L329.903 224.355L323.026 159.957L316.149 150.438L309.272 130.121L302.395 194.158L295.518 195.602L288.641 174.793L281.764 125.099L274.887 149.487L268.01 176.007L261.132 155.23L254.255 117.025L247.378 109.246L240.501 138.753L233.624 124.837L226.747 125.263L219.87 135.996L212.993 105.373L206.116 101.434L199.239 147.911L192.361 110.624L185.484 121.948L178.607 147.517L171.73 167.08L164.853 180.602L157.976 130.252L151.099 117.878L144.222 141.74L137.345 196.653L130.468 163.075L123.59 169.968L116.713 172.627L109.836 128.611L102.959 110.099L96.0821 117.452L89.205 121.325L82.3279 102.616L75.4508 86.6966L68.5737 143.25L61.6966 204.005L54.8195 168.786L47.9424 135.012L41.0653 146.959L34.1882 103.272L27.3111 65.4603L20.434 48.3268L13.5569 56.0073L6.67984 84.6616L-0.197255 98.5456L-7.07435 90.2414L-13.9146 65.9526" stroke="url(#paint2_linear_205_14)" stroke-linecap="round" stroke-linejoin="round"/>
<path d="M36.8877 259H35.7803V251.877C35.7803 251.285 35.7985 250.724 35.835 250.195C35.7393 250.291 35.6322 250.391 35.5137 250.496C35.3952 250.601 34.8529 251.045 33.8867 251.829L33.2852 251.05L35.9307 249.006H36.8877V259ZM49.2197 251.508H50.4639L47.2305 255.124L50.7305 259H49.4043L45.9863 255.206V259H44.8516V251.508H45.9863V255.151L49.2197 251.508ZM58.2021 253.388C58.2021 253.875 58.0609 254.247 57.7783 254.502C57.5003 254.753 57.1084 254.921 56.6025 255.008V255.069C57.2406 255.156 57.7054 255.343 57.9971 255.63C58.2933 255.917 58.4414 256.313 58.4414 256.819C58.4414 257.517 58.1839 258.054 57.6689 258.433C57.1585 258.811 56.4111 259 55.4268 259H52.125V251.508H55.4131C57.2725 251.508 58.2021 252.134 58.2021 253.388ZM57.3066 256.744C57.3066 256.339 57.1517 256.045 56.8418 255.862C56.5365 255.675 56.0283 255.582 55.3174 255.582H53.2598V258.05H55.3447C56.6527 258.05 57.3066 257.615 57.3066 256.744ZM57.0947 253.497C57.0947 253.132 56.9535 252.875 56.6709 252.725C56.3929 252.57 55.9691 252.492 55.3994 252.492H53.2598V254.604H55.1807C55.8825 254.604 56.377 254.518 56.6641 254.345C56.9512 254.172 57.0947 253.889 57.0947 253.497ZM64.7031 259L64.4775 257.934H64.4229C64.0492 258.403 63.6755 258.722 63.3018 258.891C62.9326 259.055 62.4701 259.137 61.9141 259.137C61.1712 259.137 60.5879 258.945 60.1641 258.562C59.7448 258.18 59.5352 257.635 59.5352 256.929C59.5352 255.416 60.7451 254.623 63.165 254.55L64.4365 254.509V254.044C64.4365 253.456 64.3089 253.023 64.0537 252.745C63.8031 252.463 63.3997 252.321 62.8438 252.321C62.2194 252.321 61.513 252.513 60.7246 252.896L60.376 252.027C60.7451 251.827 61.1484 251.67 61.5859 251.556C62.028 251.442 62.4701 251.385 62.9121 251.385C63.8053 251.385 64.4661 251.583 64.8945 251.979C65.3275 252.376 65.5439 253.012 65.5439 253.887V259H64.7031ZM62.1396 258.2C62.846 258.2 63.3997 258.007 63.8008 257.619C64.2064 257.232 64.4092 256.689 64.4092 255.992V255.315L63.2744 255.363C62.3721 255.395 61.7204 255.536 61.3193 255.787C60.9229 256.033 60.7246 256.418 60.7246 256.942C60.7246 257.353 60.8477 257.665 61.0938 257.879C61.3444 258.093 61.693 258.2 62.1396 258.2ZM71.375 259.137C70.8874 259.137 70.4408 259.048 70.0352 258.87C69.6341 258.688 69.2969 258.41 69.0234 258.036H68.9414C68.9961 258.474 69.0234 258.888 69.0234 259.28V262.363H67.8887V251.508H68.8115L68.9688 252.533H69.0234C69.3151 252.123 69.6546 251.827 70.042 251.645C70.4294 251.462 70.8737 251.371 71.375 251.371C72.3685 251.371 73.1341 251.711 73.6719 252.39C74.2142 253.069 74.4854 254.021 74.4854 255.247C74.4854 256.478 74.2096 257.435 73.6582 258.118C73.1113 258.797 72.3503 259.137 71.375 259.137ZM71.2109 252.335C70.4453 252.335 69.8916 252.547 69.5498 252.971C69.208 253.395 69.0326 254.069 69.0234 254.994V255.247C69.0234 256.3 69.1989 257.054 69.5498 257.51C69.9007 257.961 70.4635 258.187 71.2383 258.187C71.8854 258.187 72.3913 257.924 72.7559 257.4C73.125 256.876 73.3096 256.154 73.3096 255.233C73.3096 254.299 73.125 253.584 72.7559 253.087C72.3913 252.586 71.8763 252.335 71.2109 252.335ZM81.5264 252.479H79.0928V259H77.958V252.479H75.5518V251.508H81.5264V252.479ZM87.6172 259L87.3916 257.934H87.3369C86.9632 258.403 86.5895 258.722 86.2158 258.891C85.8467 259.055 85.3841 259.137 84.8281 259.137C84.0853 259.137 83.502 258.945 83.0781 258.562C82.6589 258.18 82.4492 257.635 82.4492 256.929C82.4492 255.416 83.6592 254.623 86.0791 254.55L87.3506 254.509V254.044C87.3506 253.456 87.223 253.023 86.9678 252.745C86.7171 252.463 86.3138 252.321 85.7578 252.321C85.1335 252.321 84.4271 252.513 83.6387 252.896L83.29 252.027C83.6592 251.827 84.0625 251.67 84.5 251.556C84.9421 251.442 85.3841 251.385 85.8262 251.385C86.7194 251.385 87.3802 251.583 87.8086 251.979C88.2415 252.376 88.458 253.012 88.458 253.887V259H87.6172ZM85.0537 258.2C85.7601 258.2 86.3138 258.007 86.7148 257.619C87.1204 257.232 87.3232 256.689 87.3232 255.992V255.315L86.1885 255.363C85.2861 255.395 84.6344 255.536 84.2334 255.787C83.8369 256.033 83.6387 256.418 83.6387 256.942C83.6387 257.353 83.7617 257.665 84.0078 257.879C84.2585 258.093 84.6071 258.2 85.0537 258.2ZM96.3877 259H95.2393V252.479H92.9902C92.8672 254.101 92.6963 255.388 92.4775 256.341C92.2588 257.293 91.974 257.991 91.623 258.433C91.2767 258.875 90.8346 259.096 90.2969 259.096C90.0508 259.096 89.8548 259.068 89.709 259.014V258.173C89.8092 258.2 89.9232 258.214 90.0508 258.214C90.5749 258.214 90.9919 257.66 91.3018 256.553C91.6117 255.445 91.8464 253.764 92.0059 251.508H96.3877V259Z" fill="#A1A6BE"/>
<path d="M192.253 259H185.684V258.022L188.315 255.377C189.118 254.566 189.646 253.987 189.901 253.641C190.157 253.294 190.348 252.957 190.476 252.629C190.603 252.301 190.667 251.948 190.667 251.569C190.667 251.036 190.505 250.615 190.182 250.305C189.858 249.99 189.409 249.833 188.835 249.833C188.42 249.833 188.026 249.901 187.652 250.038C187.283 250.175 186.871 250.423 186.415 250.783L185.813 250.011C186.734 249.245 187.737 248.862 188.821 248.862C189.76 248.862 190.496 249.104 191.029 249.587C191.562 250.065 191.829 250.71 191.829 251.521C191.829 252.155 191.651 252.782 191.296 253.401C190.94 254.021 190.275 254.805 189.3 255.753L187.112 257.893V257.947H192.253V259ZM202.22 251.508H203.464L200.23 255.124L203.73 259H202.404L198.986 255.206V259H197.852V251.508H198.986V255.151L202.22 251.508ZM211.202 253.388C211.202 253.875 211.061 254.247 210.778 254.502C210.5 254.753 210.108 254.921 209.603 255.008V255.069C210.241 255.156 210.705 255.343 210.997 255.63C211.293 255.917 211.441 256.313 211.441 256.819C211.441 257.517 211.184 258.054 210.669 258.433C210.159 258.811 209.411 259 208.427 259H205.125V251.508H208.413C210.272 251.508 211.202 252.134 211.202 253.388ZM210.307 256.744C210.307 256.339 210.152 256.045 209.842 255.862C209.536 255.675 209.028 255.582 208.317 255.582H206.26V258.05H208.345C209.653 258.05 210.307 257.615 210.307 256.744ZM210.095 253.497C210.095 253.132 209.953 252.875 209.671 252.725C209.393 252.57 208.969 252.492 208.399 252.492H206.26V254.604H208.181C208.882 254.604 209.377 254.518 209.664 254.345C209.951 254.172 210.095 253.889 210.095 253.497ZM217.703 259L217.478 257.934H217.423C217.049 258.403 216.675 258.722 216.302 258.891C215.933 259.055 215.47 259.137 214.914 259.137C214.171 259.137 213.588 258.945 213.164 258.562C212.745 258.18 212.535 257.635 212.535 256.929C212.535 255.416 213.745 254.623 216.165 254.55L217.437 254.509V254.044C217.437 253.456 217.309 253.023 217.054 252.745C216.803 252.463 216.4 252.321 215.844 252.321C215.219 252.321 214.513 252.513 213.725 252.896L213.376 252.027C213.745 251.827 214.148 251.67 214.586 251.556C215.028 251.442 215.47 251.385 215.912 251.385C216.805 251.385 217.466 251.583 217.895 251.979C218.327 252.376 218.544 253.012 218.544 253.887V259H217.703ZM215.14 258.2C215.846 258.2 216.4 258.007 216.801 257.619C217.206 257.232 217.409 256.689 217.409 255.992V255.315L216.274 255.363C215.372 255.395 214.72 255.536 214.319 255.787C213.923 256.033 213.725 256.418 213.725 256.942C213.725 257.353 213.848 257.665 214.094 257.879C214.344 258.093 214.693 258.2 215.14 258.2ZM224.375 259.137C223.887 259.137 223.441 259.048 223.035 258.87C222.634 258.688 222.297 258.41 222.023 258.036H221.941C221.996 258.474 222.023 258.888 222.023 259.28V262.363H220.889V251.508H221.812L221.969 252.533H222.023C222.315 252.123 222.655 251.827 223.042 251.645C223.429 251.462 223.874 251.371 224.375 251.371C225.368 251.371 226.134 251.711 226.672 252.39C227.214 253.069 227.485 254.021 227.485 255.247C227.485 256.478 227.21 257.435 226.658 258.118C226.111 258.797 225.35 259.137 224.375 259.137ZM224.211 252.335C223.445 252.335 222.892 252.547 222.55 252.971C222.208 253.395 222.033 254.069 222.023 254.994V255.247C222.023 256.3 222.199 257.054 222.55 257.51C222.901 257.961 223.464 258.187 224.238 258.187C224.885 258.187 225.391 257.924 225.756 257.4C226.125 256.876 226.31 256.154 226.31 255.233C226.31 254.299 226.125 253.584 225.756 253.087C225.391 252.586 224.876 252.335 224.211 252.335ZM234.526 252.479H232.093V259H230.958V252.479H228.552V251.508H234.526V252.479ZM240.617 259L240.392 257.934H240.337C239.963 258.403 239.59 258.722 239.216 258.891C238.847 259.055 238.384 259.137 237.828 259.137C237.085 259.137 236.502 258.945 236.078 258.562C235.659 258.18 235.449 257.635 235.449 256.929C235.449 255.416 236.659 254.623 239.079 254.55L240.351 254.509V254.044C240.351 253.456 240.223 253.023 239.968 252.745C239.717 252.463 239.314 252.321 238.758 252.321C238.133 252.321 237.427 252.513 236.639 252.896L236.29 252.027C236.659 251.827 237.062 251.67 237.5 251.556C237.942 251.442 238.384 251.385 238.826 251.385C239.719 251.385 240.38 251.583 240.809 251.979C241.242 252.376 241.458 253.012 241.458 253.887V259H240.617ZM238.054 258.2C238.76 258.2 239.314 258.007 239.715 257.619C240.12 257.232 240.323 256.689 240.323 255.992V255.315L239.188 255.363C238.286 255.395 237.634 255.536 237.233 255.787C236.837 256.033 236.639 256.418 236.639 256.942C236.639 257.353 236.762 257.665 237.008 257.879C237.258 258.093 237.607 258.2 238.054 258.2ZM249.388 259H248.239V252.479H245.99C245.867 254.101 245.696 255.388 245.478 256.341C245.259 257.293 244.974 257.991 244.623 258.433C244.277 258.875 243.835 259.096 243.297 259.096C243.051 259.096 242.855 259.068 242.709 259.014V258.173C242.809 258.2 242.923 258.214 243.051 258.214C243.575 258.214 243.992 257.66 244.302 256.553C244.612 255.445 244.846 253.764 245.006 251.508H249.388V259Z" fill="#A1A6BE"/>
</g>
<defs>
<linearGradient id="paint0_linear_205_14" x1="539.53" y1="48.3268" x2="539.53" y2="305.592" gradientUnits="userSpaceOnUse">
<stop stop-color="#0A090A"/>
<stop offset="0.315625" stop-color="#050505" stop-opacity="0.32"/>
<stop offset="0.695833" stop-opacity="0"/>
</linearGradient>
<linearGradient id="paint1_linear_205_14" x1="539.53" y1="48.3268" x2="576.739" y2="250.652" gradientUnits="userSpaceOnUse">
<stop stop-color="#43E9FF"/>
<stop offset="1" stop-color="#00ABAB"/>
</linearGradient>
<linearGradient id="paint2_linear_205_14" x1="539.53" y1="48.3268" x2="576.739" y2="250.652" gradientUnits="userSpaceOnUse">
<stop stop-color="#43E9FF"/>
<stop offset="1" stop-color="#00ABAB"/>
</linearGradient>
<clipPath id="clip0_205_14">
<rect width="294" height="273" fill="white" transform="translate(0.157959)"/>
</clipPath>
</defs>
</svg>
